<svg width="20" height="20" viewBox="0 0 20 20" fill="none" xmlns="http://www.w3.org/2000/svg">
    <path fill-rule="evenodd" clip-rule="evenodd" d="M10 18C14.4183 18 18 14.4183 18 10C18 5.58172 14.4183 2 10 2C5.58172 2 2 5.58172 2 10C2 14.4183 5.58172 18 10 18ZM6.71486 7.75227C6.42838 7.4658 6.42838 7.00133 6.71486 6.71486C7.00133 6.42838 7.4658 6.42838 7.75227 6.71486L10 8.96259L12.2477 6.71486C12.5342 6.42838 12.9987 6.42838 13.2851 6.71486C13.5716 7.00133 13.5716 7.4658 13.2851 7.75227L11.0374 10L13.2851 12.2477C13.5716 12.5342 13.5716 12.9987 13.2851 13.2851C12.9987 13.5716 12.5342 13.5716 12.2477 13.2851L10 11.0374L7.75227 13.2851C7.4658 13.5716 7.00133 13.5716 6.71486 13.2851C6.42838 12.9987 6.42838 12.5342 6.71486 12.2477L8.96259 10L6.71486 7.75227Z" fill="#D1D3D7"/>
</svg>