<svg width="43" height="32" viewBox="0 0 43 32" fill="none" xmlns="http://www.w3.org/2000/svg">
<circle cx="27.5" cy="15.5" r="8.5" fill="#FFAEAD" stroke="black" stroke-width="2"/>
<path d="M1 24.8613C1 20.2777 4.95052 19.1318 6.92578 19.1318C5.97766 14.2208 8.90106 11.3559 10.8763 10.1282C14.8269 7.67262 20.3576 9.30973 22.7279 14.2209C23.518 13.4023 25.8883 12.1746 28.2586 13.4023C30.6289 14.6299 31.024 17.0857 31.024 18.7227C33.3943 18.7227 36.9497 21.178 35.7646 26.089C34.8165 30.0178 31.1557 31 29.4438 31H6.13568C4.42379 30.8636 1 29.4449 1 24.8613Z" fill="#FFE7E4"/>
<path fill-rule="evenodd" clip-rule="evenodd" d="M1.02539 25.5298C1.34052 29.5844 4.51 30.8703 6.13567 30.9999H29.4438C31.1556 30.9999 34.8165 30.0177 35.7646 26.0889C36.461 23.203 35.5204 21.1651 34.1453 19.9751C34.1181 20.4938 34.0461 21.0427 33.9224 21.6218C32.9743 26.0631 29.3135 27.1734 27.6016 27.1734H4.29351C3.42195 27.0949 2.10667 26.6407 1.02539 25.5298Z" fill="#F9CCCC"/>
<path d="M1 24.8613C1 20.2777 4.95052 19.1318 6.92578 19.1318C5.97766 14.2208 8.90106 11.3559 10.8763 10.1282C14.8269 7.67262 20.3576 9.30973 22.7279 14.2209C23.518 13.4023 25.8883 12.1746 28.2586 13.4023C30.6289 14.6299 31.024 17.0857 31.024 18.7227C33.3943 18.7227 36.9497 21.178 35.7646 26.089C34.8165 30.0178 31.1557 31 29.4438 31H6.13568C4.42379 30.8636 1 29.4449 1 24.8613Z" stroke="black" stroke-width="2" stroke-linecap="round"/>
<path d="M3.30273 25.2608C3.30273 23.826 3.30273 21.9128 7.44747 21.4346" stroke="white" stroke-width="2" stroke-linecap="round"/>
<path d="M9.28944 19.0436C8.36831 15.2176 11.5921 9.95669 17.1185 11.8699" stroke="white" stroke-width="2" stroke-linecap="round"/>
<path d="M18 5L20 7" stroke="black" stroke-width="2" stroke-linecap="round"/>
<path d="M27.437 1L27.391 3.82805" stroke="black" stroke-width="2" stroke-linecap="round"/>
<path d="M36.9751 4L35.3136 6.28901" stroke="black" stroke-width="2" stroke-linecap="round"/>
<path d="M41.7612 12.0737L39.0001 12.6871" stroke="black" stroke-width="2" stroke-linecap="round"/>
<path d="M40.6348 20.8315L37.9998 19.8034" stroke="black" stroke-width="2" stroke-linecap="round"/>
</svg>
