<svg width="33" height="33" viewBox="0 0 33 33" fill="none" xmlns="http://www.w3.org/2000/svg">
<path d="M15.9378 32.0996L7.99512 20.0999L24.7631 18.8999L15.9378 32.0996Z" fill="#A1DB5F"/>
<path fill-rule="evenodd" clip-rule="evenodd" d="M25.5286 18.4523C25.6971 18.7515 25.683 19.1225 25.4925 19.4075L16.6672 32.6072C16.5024 32.8537 16.2285 33.0009 15.936 33.0002C15.6434 32.9995 15.3702 32.851 15.2066 32.6037L7.26384 20.604C7.08743 20.3375 7.06386 19.9952 7.202 19.7062C7.34014 19.4171 7.619 19.2252 7.93354 19.2027L24.7015 18.0027C25.0389 17.9786 25.3602 18.1532 25.5286 18.4523ZM9.58209 20.8891L15.9417 30.4971L23.008 19.9283L9.58209 20.8891Z" fill="black"/>
<path d="M15.938 0.899902C10.9959 0.899902 9.172 5.29981 8.87783 7.49976C6.52443 6.99977 1.64112 7.37976 0.935101 12.8996C0.436286 16.7996 3.58274 20.6995 7.11278 20.6995H24.7633C30.6468 20.6995 32.1177 16.2996 32.1177 14.0996C31.647 7.37976 26.4303 6.69977 23.8808 7.19976C23.5866 5.99979 22.1157 0.899902 15.938 0.899902Z" fill="#D1F2AD"/>
<path fill-rule="evenodd" clip-rule="evenodd" d="M22.3512 21.0008L9.11328 20.7005L9.12635 20.1001L22.3642 20.4004L22.3512 21.0008Z" fill="black"/>
<path fill-rule="evenodd" clip-rule="evenodd" d="M19.8031 22.7998H10.002V20.3999H24.3232L16.8494 31.2878L14.9215 29.9115L19.8031 22.7998Z" fill="#679433"/>
<path fill-rule="evenodd" clip-rule="evenodd" d="M25.5286 18.4523C25.6971 18.7515 25.683 19.1225 25.4925 19.4075L16.6672 32.6072C16.5024 32.8537 16.2285 33.0009 15.936 33.0002C15.6434 32.9995 15.3702 32.851 15.2066 32.6037L7.26384 20.604C7.08743 20.3375 7.06386 19.9952 7.202 19.7062C7.34014 19.4171 7.619 19.2252 7.93354 19.2027L24.7015 18.0027C25.0389 17.9786 25.3602 18.1532 25.5286 18.4523ZM9.58209 20.8891L15.9417 30.4971L23.008 19.9283L9.58209 20.8891Z" fill="black"/>
<path fill-rule="evenodd" clip-rule="evenodd" d="M1.14746 15.6078C2.27703 16.8811 3.76922 17.7 5.33722 17.7H22.9582C28.8318 17.7 30.3002 13.0334 30.3002 10.7002C30.2576 10.0535 30.176 9.45958 30.0608 8.91455C31.1392 9.9942 31.9455 11.6436 32.1176 14.1001C32.1176 16.3 30.6467 20.6999 24.7632 20.6999H7.1127C4.41506 20.6999 1.94143 18.4224 1.14746 15.6078Z" fill="#9CBF75"/>
<path fill-rule="evenodd" clip-rule="evenodd" d="M11.346 3.94709C10.3575 5.171 9.88116 6.6562 9.75208 7.62143L9.62421 8.57775L8.69766 8.3809C7.64698 8.15768 6.03533 8.13909 4.64523 8.76551C3.31983 9.36279 2.12259 10.5725 1.81004 13.0161C1.5962 14.688 2.1631 16.3962 3.19781 17.6945C4.23549 18.9965 5.67049 19.7996 7.1126 19.7996H24.7631C27.4619 19.7996 29.0413 18.8042 29.9636 17.6547C30.9052 16.481 31.2278 15.062 31.2348 14.1308C31.0117 11.0638 29.7399 9.51213 28.3518 8.73008C26.897 7.91042 25.1779 7.86189 24.0472 8.08363L23.227 8.24449L23.0244 7.41812C22.8892 6.86668 22.4887 5.44899 21.4405 4.17963C20.42 2.94381 18.749 1.79996 15.9379 1.79996C13.7626 1.79996 12.3104 2.75296 11.346 3.94709ZM9.98355 2.80276C11.2401 1.24695 13.1709 0 15.9379 0C19.3043 0 21.4577 1.40609 22.7906 3.02021C23.7284 4.15586 24.2412 5.36981 24.5145 6.20382C25.876 6.08332 27.6279 6.26585 29.2054 7.15457C31.1757 8.26468 32.7434 10.4046 32.9978 14.0356L33 14.0676V14.0997C33 15.3691 32.5838 17.2314 31.3296 18.7945C30.0456 20.3949 27.9478 21.5995 24.7631 21.5995H7.1126C5.02467 21.5995 3.12143 20.4526 1.82807 18.8297C0.531755 17.2031 -0.225165 15.0114 0.0598139 12.7833C0.453281 9.70705 2.0507 7.96683 3.93181 7.11914C5.37626 6.46821 6.94104 6.36111 8.17645 6.48372C8.45772 5.35527 9.02351 3.99143 9.98355 2.80276Z" fill="black"/>
<path fill-rule="evenodd" clip-rule="evenodd" d="M4.70751 12.0194C4.1423 12.8567 4.0412 13.9516 4.16615 14.5878C4.26187 15.0751 3.95204 15.5494 3.47413 15.647C2.99621 15.7446 2.53119 15.4286 2.43547 14.9413C2.23024 13.8963 2.38115 12.2912 3.25365 10.9987C4.18218 9.62326 5.83759 8.7329 8.33411 9.07237C8.81724 9.13807 9.15667 9.59072 9.09225 10.0834C9.02782 10.5761 8.58395 10.9222 8.10082 10.8565C6.18469 10.596 5.21669 11.2651 4.70751 12.0194Z" fill="#F7FDF1"/>
<path fill-rule="evenodd" clip-rule="evenodd" d="M18.0575 3.15329C18.0464 3.65021 17.6424 4.04387 17.1551 4.03256C14.5975 3.97318 13.3965 4.99188 12.7863 5.94145C12.1521 6.92841 12.0737 7.97219 12.0597 8.15818C12.0593 8.16366 12.059 8.16839 12.0587 8.17236C12.0196 8.66781 11.5942 9.0372 11.1083 8.99741C10.6225 8.95762 10.2603 8.52372 10.2993 8.02827C10.2997 8.02273 10.3002 8.01594 10.3008 8.00793C10.3193 7.75859 10.4249 6.33234 11.31 4.95492C12.2662 3.4668 14.0508 2.16006 17.1953 2.23306C17.6826 2.24438 18.0686 2.65638 18.0575 3.15329Z" fill="#F7FDF1"/>
</svg>
