<svg width="19" height="16" viewBox="0 0 19 16" fill="none" xmlns="http://www.w3.org/2000/svg">
<path d="M13.8524 0C12.9613 0.013284 12.0897 0.25169 11.3255 0.691141C10.5612 1.13059 9.93157 1.75553 9.5 2.50284C9.06843 1.75553 8.43875 1.13059 7.67455 0.691141C6.91035 0.25169 6.03869 0.013284 5.14759 0C3.72707 0.059151 2.38872 0.654724 1.42492 1.6566C0.461119 2.65848 -0.0497832 3.98522 0.00383099 5.34698C0.00383099 8.79559 3.79122 12.562 6.96769 15.1156C7.67691 15.6868 8.57361 16 9.5 16C10.4264 16 11.3231 15.6868 12.0323 15.1156C15.2088 12.562 18.9962 8.79559 18.9962 5.34698C19.0498 3.98522 18.5389 2.65848 17.5751 1.6566C16.6113 0.654724 15.2729 0.059151 13.8524 0Z" fill="#BBBEC2"/>
</svg>
