<svg width="15" height="20" viewBox="0 0 15 20" fill="none" xmlns="http://www.w3.org/2000/svg">
<path fill-rule="evenodd" clip-rule="evenodd" d="M5.59095 18.9862C6.34891 20.1367 7.99236 20.1367 8.75032 18.9862C10.8617 15.7811 14.3413 10.0807 14.3413 7.322C14.3413 3.36177 11.1309 0.151367 7.17063 0.151367C3.2104 0.151367 0 3.36177 0 7.322C0 10.0807 3.47955 15.7811 5.59095 18.9862ZM7.52918 10.9069C9.31129 10.9069 10.756 9.46224 10.756 7.68014C10.756 5.89804 9.31129 4.45336 7.52918 4.45336C5.74708 4.45336 4.3024 5.89804 4.3024 7.68014C4.3024 9.46224 5.74708 10.9069 7.52918 10.9069Z" fill="#97DF47"/>
</svg>
