<svg width="10" height="12" viewBox="0 0 10 12" fill="none" xmlns="http://www.w3.org/2000/svg">
<path fill-rule="evenodd" clip-rule="evenodd" d="M3.00135 11.0484C3.73837 12.2125 5.38313 12.2125 6.12015 11.0484C7.41551 9.00244 9.04728 6.12857 9.04728 4.63423C9.04728 2.15639 7.03859 0.147705 4.56075 0.147705C2.08291 0.147705 0.0742188 2.15639 0.0742188 4.63423C0.0742188 6.12857 1.70598 9.00244 3.00135 11.0484ZM4.78506 6.87732C5.90009 6.87732 6.80399 5.97341 6.80399 4.85838C6.80399 3.74335 5.90009 2.83944 4.78506 2.83944C3.67003 2.83944 2.76612 3.74335 2.76612 4.85838C2.76612 5.97341 3.67003 6.87732 4.78506 6.87732Z" fill="#97DF47"/>
</svg>
