<svg width="28" height="30" viewBox="0 0 28 30" fill="none" xmlns="http://www.w3.org/2000/svg">
<path fill-rule="evenodd" clip-rule="evenodd" d="M14 28C21.1795 28 27 22.1795 27 15C27 7.8205 21.1795 2 14 2C6.8205 2 1 7.8205 1 15C1 22.1795 6.8205 28 14 28Z" fill="#B5B5B5"/>
<path fill-rule="evenodd" clip-rule="evenodd" d="M19.2105 12.8284C19.2105 12.8284 14.7769 8.38434 14.7398 8.34158C14.5595 8.13276 14.296 8 14 8C13.6916 8 13.4188 8.14469 13.2384 8.36893C13.1999 8.41716 8.78949 12.8284 8.78949 12.8284C8.4035 13.2167 8.4035 13.8467 8.78949 14.2345C9.17547 14.6229 9.80164 14.6229 10.1871 14.2345L13.0116 11.3935V21.0006C13.0116 21.5525 13.4544 22 14 22C14.5461 22 14.9884 21.5525 14.9884 21.0006V11.3935L17.8129 14.2345C18.1984 14.6229 18.8245 14.6229 19.2105 14.2345C19.5965 13.8467 19.5965 13.2167 19.2105 12.8284Z" fill="white"/>
</svg>
