<svg width="37" height="31" viewBox="0 0 37 31" fill="none" xmlns="http://www.w3.org/2000/svg">
<path d="M1 17.1555C1 12.683 4.95052 11.5649 6.92578 11.5649C5.97766 6.77299 8.90106 3.9775 10.8763 2.77952C14.8269 0.383505 20.3576 1.98094 22.7279 6.77303C23.518 5.97426 25.8883 4.77639 28.2586 5.97426C30.6289 7.17212 31.024 9.56836 31.024 11.1657C33.3943 11.1657 36.9497 13.5615 35.7646 18.3534C34.8165 22.187 31.1557 23.1454 29.4438 23.1454H6.13568C4.42379 23.0123 1 21.6279 1 17.1555Z" fill="#BFC6CC"/>
<path fill-rule="evenodd" clip-rule="evenodd" d="M1.02539 17.8079C1.34057 21.7641 4.51 23.0188 6.13566 23.1452H29.4437C31.1556 23.1452 34.8165 22.1868 35.7646 18.3533C36.461 15.5373 35.5204 13.5488 34.1453 12.3877C34.1181 12.8939 34.0461 13.4295 33.9224 13.9946C32.9743 18.3282 29.3135 19.4116 27.6016 19.4116H4.2935C3.42195 19.335 2.10667 18.8918 1.02539 17.8079Z" fill="#8D9399"/>
<path d="M1 17.1555C1 12.683 4.95052 11.5649 6.92578 11.5649C5.97766 6.77299 8.90106 3.9775 10.8763 2.77952C14.8269 0.383505 20.3576 1.98094 22.7279 6.77303C23.518 5.97426 25.8883 4.77639 28.2586 5.97426C30.6289 7.17212 31.024 9.56836 31.024 11.1657C33.3943 11.1657 36.9497 13.5615 35.7646 18.3534C34.8165 22.187 31.1557 23.1454 29.4438 23.1454H6.13568C4.42379 23.0123 1 21.6279 1 17.1555Z" stroke="black" stroke-width="2" stroke-linecap="round"/>
<path d="M3.30273 17.5455C3.30273 16.1455 3.30273 14.2787 7.44747 13.812" stroke="#E7E7E7" stroke-width="2" stroke-linecap="round"/>
<path d="M9.28944 11.4785C8.36831 7.74521 11.5921 2.61188 17.1185 4.47868" stroke="#E7E7E7" stroke-width="2" stroke-linecap="round"/>
<path d="M3.76318 26.8784L23.1053 26.8784" stroke="black" stroke-width="1.5" stroke-linecap="round"/>
<path d="M9.28955 29.6787L29.5527 29.6787" stroke="black" stroke-width="1.5" stroke-linecap="round"/>
<path d="M25.8682 26.8784L34.1576 26.8784" stroke="black" stroke-width="1.5" stroke-linecap="round"/>
</svg>
