<svg width="37" height="24" viewBox="0 0 37 24" fill="none" xmlns="http://www.w3.org/2000/svg">
<path d="M1 16.8613C1 12.2777 4.95052 11.1318 6.92578 11.1318C5.97766 6.22085 8.90106 3.3559 10.8763 2.12815C14.8269 -0.327385 20.3576 1.30973 22.7279 6.22089C23.518 5.40227 25.8883 4.17464 28.2586 5.40227C30.6289 6.62989 31.024 9.08567 31.024 10.7227C33.3943 10.7227 36.9497 13.178 35.7646 18.089C34.8165 22.0178 31.1557 23 29.4438 23H6.13568C4.42379 22.8636 1 21.4449 1 16.8613Z" fill="#BBDFFF"/>
<path fill-rule="evenodd" clip-rule="evenodd" d="M1.02539 17.5298C1.34052 21.5844 4.51 22.8703 6.13567 22.9999H29.4438C31.1556 22.9999 34.8165 22.0177 35.7646 18.0889C36.461 15.203 35.5204 13.1651 34.1453 11.9751C34.1181 12.4938 34.0461 13.0427 33.9224 13.6218C32.9743 18.0631 29.3135 19.1734 27.6016 19.1734H4.29351C3.42195 19.0949 2.10667 18.6407 1.02539 17.5298Z" fill="#96C0E4"/>
<path d="M1 16.8613C1 12.2777 4.95052 11.1318 6.92578 11.1318C5.97766 6.22085 8.90106 3.3559 10.8763 2.12815C14.8269 -0.327385 20.3576 1.30973 22.7279 6.22089C23.518 5.40227 25.8883 4.17464 28.2586 5.40227C30.6289 6.62989 31.024 9.08567 31.024 10.7227C33.3943 10.7227 36.9497 13.178 35.7646 18.089C34.8165 22.0178 31.1557 23 29.4438 23H6.13568C4.42379 22.8636 1 21.4449 1 16.8613Z" stroke="black" stroke-width="2" stroke-linecap="round"/>
<path d="M3.30273 17.2608C3.30273 15.826 3.30273 13.9128 7.44747 13.4346" stroke="#DEEFFF" stroke-width="2" stroke-linecap="round"/>
<path d="M9.28944 11.0436C8.36831 7.21756 11.5921 1.95669 17.1185 3.86987" stroke="#DEEFFF" stroke-width="2" stroke-linecap="round"/>
</svg>
